<svg width="90" height="90" viewBox="0 0 90 90" fill="none" xmlns="http://www.w3.org/2000/svg">
<path fill-rule="evenodd" clip-rule="evenodd" d="M73.8416 50.7473C74.2098 48.888 74.4086 46.9661 74.4086 45C74.4086 43.0302 74.2098 41.112 73.8416 39.2527L80.4909 33.7705C82.3429 32.2462 82.8179 29.6026 81.6213 27.5261L78.4218 21.9739C77.2215 19.8974 74.6994 18.9916 72.4572 19.8311L64.3646 22.8686C61.4928 20.3502 58.1423 18.3841 54.4531 17.1286L53.0356 8.60155C52.6417 6.23414 50.5983 4.5 48.1977 4.5H41.7987C39.4019 4.5 37.3584 6.23414 36.9645 8.60155L35.547 17.1286C31.8577 18.3841 28.5036 20.3502 25.6354 22.8686L17.5428 19.8311C15.3006 18.9916 12.7748 19.8974 11.5782 21.9739L8.37874 27.5261C7.18215 29.6026 7.65711 32.2462 9.50538 33.7705L16.1584 39.2527C15.7866 41.112 15.5914 43.0302 15.5914 45C15.5914 46.9661 15.7866 48.888 16.1584 50.7473L9.50538 56.2295C7.65711 57.7538 7.18215 60.3974 8.37874 62.4739L11.5782 68.0261C12.7748 70.1026 15.3006 71.0084 17.5428 70.1689L25.6354 67.1314C28.5036 69.6498 31.8577 71.6159 35.547 72.8714L36.9645 81.3985C37.3584 83.7659 39.4019 85.5 41.7987 85.5H48.1977C50.5983 85.5 52.6417 83.7659 53.0356 81.3985L54.4531 72.8714C58.1423 71.6122 61.4928 69.6498 64.3646 67.1314L72.4572 70.1689C74.6994 71.0084 77.2215 70.1026 78.4218 68.0261L81.6213 62.4739C82.8179 60.3974 82.3429 57.7538 80.4909 56.2295L73.8416 50.7473Z" stroke="#232323" stroke-width="2.25" stroke-linecap="round" stroke-linejoin="round"/>
</svg>
