<svg width="892" height="892" viewBox="0 0 892 892" fill="none" xmlns="http://www.w3.org/2000/svg">
<g opacity="0.8" filter="url(#filter0_f_1_8319)">
<path d="M446 863.869C389.673 863.869 334.958 852.803 283.301 830.951C233.535 809.877 188.885 779.794 150.518 741.483C112.206 703.171 82.1239 658.521 61.0498 608.699C39.1972 557.098 28.1318 502.327 28.1318 446C28.1318 389.673 39.1972 334.958 61.0498 283.301C82.1239 233.535 112.206 188.884 150.518 150.517C188.829 112.206 233.48 82.1234 283.246 61.0493C334.847 39.1967 389.617 28.1313 445.945 28.1313C502.272 28.1313 556.987 39.1967 608.644 61.0493C658.41 82.1234 703.06 112.206 741.428 150.517C779.739 188.829 809.821 233.479 830.896 283.245C852.748 334.846 863.813 389.617 863.813 445.944C863.813 502.272 852.748 556.987 830.896 608.643C809.821 658.41 779.739 703.06 741.428 741.427C703.116 779.739 658.466 809.821 608.7 830.895C557.043 852.803 502.328 863.869 446 863.869Z" fill="url(#paint0_linear_1_8319)"/>
<path d="M352.383 96.617C399.487 83.9957 447.723 80.9722 495.799 87.6627C542.144 94.1261 586.222 109.314 626.865 132.733C667.521 156.206 702.713 186.785 731.43 223.704C761.248 261.94 782.747 305.226 795.383 352.383C808.004 399.487 811.028 447.723 804.337 495.799C797.874 542.144 782.686 586.222 759.267 626.865C735.794 667.521 705.215 702.713 668.296 731.43C630.06 761.248 586.774 782.747 539.617 795.383C492.513 808.004 444.277 811.028 396.201 804.337C349.856 797.874 305.778 782.686 265.135 759.267C224.479 735.794 189.287 705.215 160.57 668.296C130.752 630.06 109.253 586.774 96.6169 539.617C83.9955 492.513 80.9721 444.277 87.6627 396.201C94.1261 349.856 109.314 305.778 132.733 265.135C156.206 224.479 186.785 189.287 223.704 160.57C261.994 130.738 305.279 109.238 352.383 96.617Z" fill="url(#paint1_linear_1_8319)"/>
<path d="M446.056 751.658C404.797 751.658 364.818 743.596 327.062 727.637C290.641 712.235 258.001 690.215 229.921 662.191C201.896 634.166 179.821 601.47 164.474 565.049C148.516 527.349 140.453 487.314 140.453 446.056C140.453 404.797 148.516 364.817 164.474 327.062C179.877 290.641 201.896 258.001 229.921 229.92C257.946 201.896 290.641 179.821 327.062 164.474C364.762 148.515 404.797 140.453 446.056 140.453C487.315 140.453 527.294 148.515 565.05 164.474C601.471 179.876 634.111 201.896 662.191 229.92C690.216 257.945 712.291 290.641 727.638 327.062C743.596 364.762 751.659 404.797 751.659 446.056C751.659 487.314 743.596 527.294 727.638 565.049C712.235 601.47 690.216 634.11 662.191 662.191C634.166 690.215 601.471 712.29 565.05 727.637C527.294 743.596 487.259 751.658 446.056 751.658Z" fill="url(#paint2_linear_1_8319)"/>
<path d="M345.426 217.831C219.351 273.438 162.225 420.721 217.831 546.796C273.438 672.872 420.721 729.998 546.796 674.391C672.872 618.784 729.998 471.502 674.391 345.426C618.784 219.351 471.502 162.225 345.426 217.831Z" fill="url(#paint3_linear_1_8319)"/>
<path d="M407.212 620.98C503.881 642.371 599.588 581.347 620.98 484.678C642.371 388.008 581.347 292.301 484.678 270.91C388.008 249.518 292.301 310.543 270.91 407.212C249.518 503.881 310.542 599.588 407.212 620.98Z" fill="url(#paint4_linear_1_8319)"/>
<path d="M548.707 379.661C511.977 323.03 436.293 306.897 379.662 343.627C323.03 380.357 306.897 456.041 343.627 512.672C380.357 569.304 456.042 585.437 512.673 548.707C569.304 511.977 585.437 436.292 548.707 379.661Z" fill="url(#paint5_linear_1_8319)"/>
</g>
<defs>
<filter id="filter0_f_1_8319" x="0.131836" y="0.131348" width="891.682" height="891.737" filterUnits="userSpaceOnUse" color-interpolation-filters="sRGB">
<feFlood flood-opacity="0" result="BackgroundImageFix"/>
<feBlend mode="normal" in="SourceGraphic" in2="BackgroundImageFix" result="shape"/>
<feGaussianBlur stdDeviation="14" result="effect1_foregroundBlur_1_8319"/>
</filter>
<linearGradient id="paint0_linear_1_8319" x1="729.508" y1="760.056" x2="11.8165" y2="143.108" gradientUnits="userSpaceOnUse">
<stop stop-color="#DADEED"/>
<stop offset="1" stop-color="#FAFBFF"/>
</linearGradient>
<linearGradient id="paint1_linear_1_8319" x1="138.559" y1="246.942" x2="876.86" y2="602.027" gradientUnits="userSpaceOnUse">
<stop stop-color="#DADEED"/>
<stop offset="1" stop-color="#FAFBFF"/>
</linearGradient>
<linearGradient id="paint2_linear_1_8319" x1="653.43" y1="675.736" x2="128.55" y2="224.505" gradientUnits="userSpaceOnUse">
<stop stop-color="#DADEED"/>
<stop offset="1" stop-color="#FAFBFF"/>
</linearGradient>
<linearGradient id="paint3_linear_1_8319" x1="215.535" y1="342.866" x2="756.275" y2="506.999" gradientUnits="userSpaceOnUse">
<stop stop-color="#DADEED"/>
<stop offset="1" stop-color="#FAFBFF"/>
</linearGradient>
<linearGradient id="paint4_linear_1_8319" x1="535.608" y1="603.778" x2="292.172" y2="278.809" gradientUnits="userSpaceOnUse">
<stop stop-color="#DADEED"/>
<stop offset="1" stop-color="#FAFBFF"/>
</linearGradient>
<linearGradient id="paint5_linear_1_8319" x1="478.104" y1="326.602" x2="440.925" y2="600.915" gradientUnits="userSpaceOnUse">
<stop stop-color="#DADEED"/>
<stop offset="1" stop-color="#FAFBFF"/>
</linearGradient>
</defs>
</svg>
