<svg width="143" height="39" viewBox="0 0 143 39" fill="none" xmlns="http://www.w3.org/2000/svg">
<path d="M36.6722 11.0117H32.666V37.6121H36.6722V11.0117Z" fill="#181D23"/>
<path d="M34.649 8.40212C34.2854 8.40212 33.9391 8.3352 33.6188 8.20233C33.2984 8.07291 33.0155 7.8933 32.7783 7.67162C32.5392 7.44747 32.3463 7.18912 32.2088 6.90248C32.0682 6.6092 31.9958 6.29032 31.9958 5.95423C31.9958 5.61912 32.0663 5.29434 32.2056 4.98531C32.3442 4.68021 32.5371 4.41153 32.7785 4.18591C33.0168 3.96152 33.2997 3.78412 33.6201 3.65396C34.2642 3.39192 35.0282 3.39045 35.6763 3.65396C35.994 3.78412 36.2767 3.96152 36.5157 4.18591C36.7564 4.40759 36.9512 4.67627 37.0997 4.97989C37.2504 5.28991 37.3259 5.61813 37.3259 5.95423C37.3259 6.29278 37.2496 6.61609 37.0971 6.90888C36.949 7.19478 36.754 7.45165 36.5155 7.67186C36.2788 7.89355 35.9964 8.07316 35.676 8.20381C35.3562 8.33495 35.0105 8.40212 34.649 8.40212Z" fill="#181D23"/>
<path d="M141.707 11.0117H137.702V37.6121H141.707V11.0117Z" fill="#181D23"/>
<path d="M139.694 8.40034C139.33 8.40034 138.983 8.33342 138.664 8.20056C138.34 8.07114 138.061 7.89054 137.824 7.66886C137.583 7.44668 137.393 7.18735 137.254 6.90046C137.114 6.60718 137.042 6.2883 137.042 5.95221C137.042 5.61709 137.112 5.29232 137.249 4.98329C137.389 4.67819 137.583 4.40853 137.824 4.18389C138.063 3.96048 138.345 3.7821 138.666 3.65194C139.309 3.38991 140.074 3.38843 140.721 3.65194C141.04 3.7821 141.324 3.9595 141.565 4.18389C141.801 4.40558 141.996 4.67278 142.144 4.97689C142.296 5.2869 142.372 5.61513 142.372 5.95221C142.372 6.29175 142.294 6.61407 142.142 6.90686C141.994 7.19276 141.799 7.44963 141.564 7.66984C141.323 7.89152 141.042 8.07114 140.721 8.20179C140.402 8.33317 140.055 8.40034 139.694 8.40034ZM55.632 37.6092H52.3988L40.7919 11.0109L45.0487 11.0025L54.0452 31.9713C54.0497 31.9809 54.0521 31.992 54.0563 32.0016C54.0568 32.0006 54.0569 31.9977 54.0569 31.9967L63.0953 11.0089H67.241L55.632 37.6092ZM21.9994 0.0742188V14.8218C21.4032 13.8175 20.1767 12.2691 17.8204 10.9809C16.4408 10.2257 14.7667 9.84339 12.8443 9.84339C10.6727 9.84339 8.76982 10.2435 7.18833 11.034C5.60104 11.8295 4.25732 12.8904 3.19596 14.1902C2.12536 15.4967 1.31892 17.0237 0.796153 18.7268C0.267583 20.4415 0 22.2406 0 24.0709C0 25.9012 0.266264 27.6794 0.795097 29.3559C1.31628 31.0226 2.12351 32.52 3.19279 33.8103C4.25732 35.0904 5.60104 36.1356 7.18675 36.9085C8.76349 37.683 10.668 38.0742 12.8443 38.0742C14.7171 38.0742 16.3923 37.7103 17.8246 36.9911C20.0928 35.8547 21.3737 34.3663 21.9994 33.4523V37.5696H26.02V0.0742188H21.9994ZM20.6298 28.0649C20.2466 29.3207 19.6827 30.4442 18.9536 31.4054C18.2176 32.3756 17.3032 33.1514 16.2376 33.7121C15.1625 34.2768 13.9098 34.5607 12.5126 34.5607C11.1145 34.5607 9.86126 34.2768 8.78644 33.7121C7.71822 33.1514 6.80464 32.3756 6.06944 31.4054C5.34322 30.4471 4.77903 29.3219 4.39375 28.0649C4.01217 26.8182 3.819 25.4696 3.819 24.0613C3.819 22.6566 4.0119 21.3002 4.39375 20.0348C4.77797 18.7627 5.34137 17.6221 6.06892 16.645C6.80253 15.6594 7.71321 14.8573 8.77747 14.2646C9.85361 13.6627 11.1103 13.3569 12.5126 13.3569C13.9122 13.3569 15.1673 13.663 16.2466 14.2646C17.3074 14.8575 18.2189 15.6579 18.9557 16.6428C19.6835 17.6235 20.2471 18.764 20.6298 20.037C21.0114 21.2997 21.2045 22.6551 21.2045 24.0615C21.2045 25.4733 21.0116 26.8199 20.6298 28.0649Z" fill="#181D23"/>
<path d="M83.0979 17.8125C79.8289 19.2565 66.4798 25.2359 67.8401 32.9144C68.8091 38.3869 75.632 38.1808 80.5089 37.6326V37.4298C73.1171 38.2578 70.4455 35.6133 70.1307 32.472C69.6982 28.1387 75.8594 23.9129 80.0014 22.2907L79.4771 25.0674L81.6866 25.0959L83.0979 17.8125Z" fill="#C93D2E"/>
<path d="M131.001 16.5282C130.577 15.2643 129.951 14.1788 129.149 13.2994C128.335 12.4102 127.327 11.7296 126.155 11.2767C125.001 10.8291 123.69 10.6035 122.258 10.6035C121.256 10.6035 120.26 10.7302 119.3 10.9834C118.327 11.2407 117.416 11.6447 116.594 12.1851C115.769 12.7246 115.029 13.4116 114.397 14.2307C114.222 14.4558 114.071 14.7107 113.915 14.9612C113.581 14.3446 113.194 13.7804 112.746 13.2873C111.929 12.3999 110.925 11.7188 109.754 11.2649C108.597 10.8188 107.286 10.5932 105.857 10.5932C104.855 10.5932 103.859 10.7199 102.899 10.973C101.926 11.2299 101.015 11.6344 100.19 12.1742C99.7844 12.4405 99.3997 12.7426 99.0371 13.0784L99.0347 11.0432H95.0123V37.6098H99.0453L99.0381 18.9267C99.1268 18.4966 99.2411 18.0881 99.3955 17.7154C99.7475 16.8569 100.226 16.1321 100.82 15.5632C101.412 14.9973 102.101 14.5655 102.863 14.2818C103.64 13.9925 104.463 13.8456 105.311 13.8456C107.231 13.8456 108.656 14.4022 109.667 15.5475C110.701 16.7164 111.225 18.4769 111.225 20.7811V28.2379V37.6098H115.257V20.7917C115.257 19.6222 115.439 18.5913 115.796 17.7257C116.149 16.8673 116.627 16.1427 117.221 15.5751C117.815 15.0077 118.503 14.5759 119.266 14.2922C120.042 14.0023 120.866 13.8559 121.712 13.8559C123.634 13.8559 125.061 14.4125 126.068 15.5593C127.104 16.7268 127.626 18.4872 127.626 20.7919V37.6098H131.633V20.7917C131.634 19.2059 131.42 17.7727 131.001 16.5282ZM79.1843 9.9375C71.8242 9.9375 69.1859 14.5113 69.1338 17.5118H72.7589C72.9829 13.2989 80.9073 11.7041 84.4429 15.3759C85.5735 16.5501 85.7453 18.2639 85.7453 20.5571L85.7591 33.278C85.6606 37.1111 89.5586 37.5483 89.5917 37.5538L89.5832 19.9774C89.5705 19.4763 90.0224 9.9375 79.1843 9.9375Z" fill="#181D23"/>
</svg>
