<svg width="91" height="90" viewBox="0 0 91 90" fill="none" xmlns="http://www.w3.org/2000/svg">
<path d="M68.4636 42.876C71.2077 45.6309 72.7492 49.3669 72.7492 53.2623C72.7492 57.1577 71.2077 60.8936 68.4636 63.6485L47.7627 84.4247C47.0764 85.1132 46.1458 85.5 45.1755 85.5C44.2052 85.5 43.2746 85.1132 42.5883 84.4247L21.8874 63.6485C19.1423 60.8934 17.6001 57.1567 17.6001 53.2604C17.6001 49.3642 19.1423 45.6275 21.8874 42.8724C24.6325 40.1173 28.3557 38.5695 32.2379 38.5695C36.1201 38.5695 39.8432 40.1173 42.5883 42.8724L45.1718 45.4689L47.7627 42.8724C49.1219 41.5081 50.7355 40.426 52.5115 39.6877C54.2874 38.9493 56.1909 38.5693 58.1131 38.5693C60.0354 38.5693 61.9389 38.9493 63.7148 39.6877C65.4907 40.426 67.1044 41.5118 68.4636 42.876Z" stroke="#232323" stroke-width="2.25" stroke-linecap="square" stroke-linejoin="round"/>
<path d="M46.0246 4.5C54.1118 4.5 60.662 11.074 60.662 19.1906C60.662 27.3071 54.1118 33.8811 46.0246 33.8811C37.9374 33.8811 31.3872 27.3071 31.3872 19.1906C31.3872 11.074 37.9374 4.5 46.0246 4.5Z" stroke="#232323" stroke-width="2.25" stroke-linecap="square" stroke-linejoin="round"/>
</svg>
