<svg width="90" height="90" viewBox="0 0 90 90" fill="none" xmlns="http://www.w3.org/2000/svg">
<path d="M17.4806 83.6067V58.6762C14.7105 55.3947 10.3175 48.4184 8.75021 39.426M60.5566 12.571C34.3178 -6.64971 12.9542 12.5712 8.92542 27.5826M72.8641 53.7847L65.9215 55.6781V71.9303C65.4927 75.1495 64.4552 76.4465 60.5566 77.4528H48.5649M31.0504 61.5163C30.6717 71.8671 40.7807 76.4535 45.8825 77.4528H48.5649M48.5649 77.4528V85.5M8.92542 27.5826C8.42731 29.4386 8.17114 31.2079 8.17114 32.799C8.17115 35.1042 8.38321 37.3204 8.75021 39.426M8.92542 27.5826H48.5649V39.426H8.75021" stroke="#232323" stroke-width="2.25" stroke-linecap="round" stroke-linejoin="round"/>
<path d="M62.9289 19.0869H50.513C46.4271 19.0869 43.1073 22.385 43.0806 26.4709V26.4709M62.9289 19.0869L75.1565 19.1696C84.053 19.1696 84.053 47.8869 75.1565 47.8869H62.9289M62.9289 19.0869C55.9163 26.4039 57.2306 40.1954 62.9289 47.8869M62.9289 47.8869H50.5107C46.4339 47.8869 43.1289 44.582 43.1289 40.5051V40.5051" stroke="#232323" stroke-width="2.25"/>
</svg>
