<svg width="90" height="90" viewBox="0 0 90 90" fill="none" xmlns="http://www.w3.org/2000/svg">
<path d="M34.9646 85.5H55.0265" stroke="#232323" stroke-width="2.25" stroke-linecap="round" stroke-linejoin="round"/>
<path fill-rule="evenodd" clip-rule="evenodd" d="M44.9996 20.3435C57.4645 20.3435 67.5692 30.4483 67.5692 42.9132C67.5692 51.7724 62.4649 59.4394 55.0367 63.1337L55.0305 67.9906C55.0305 73.5305 50.5395 78.0215 44.9996 78.0215C39.4596 78.0215 34.9686 73.5305 34.9686 67.9906L34.9676 63.1363C27.5366 59.4429 22.4299 51.7744 22.4299 42.9132C22.4299 30.4483 32.5347 20.3435 44.9996 20.3435Z" stroke="#232323" stroke-width="2.25" stroke-linecap="round" stroke-linejoin="round"/>
<path d="M44.999 9.51548V4.5" stroke="#232323" stroke-width="2.25" stroke-linecap="round" stroke-linejoin="round"/>
<path d="M67.9692 20.5997L72.9847 15.5842" stroke="#232323" stroke-width="2.25" stroke-linecap="round" stroke-linejoin="round"/>
<path d="M21.6282 20.3966L16.6127 15.3811" stroke="#232323" stroke-width="2.25" stroke-linecap="round" stroke-linejoin="round"/>
<path d="M69.6746 58.2157L74.69 63.2312" stroke="#232323" stroke-width="2.25" stroke-linecap="round" stroke-linejoin="round"/>
<path d="M20.1216 58.2157L15.1061 63.2312" stroke="#232323" stroke-width="2.25" stroke-linecap="round" stroke-linejoin="round"/>
<path d="M12.4479 37.9058H7.43237" stroke="#232323" stroke-width="2.25" stroke-linecap="round" stroke-linejoin="round"/>
<path d="M82.5677 37.9058H77.5522" stroke="#232323" stroke-width="2.25" stroke-linecap="round" stroke-linejoin="round"/>
</svg>
