<svg width="428" height="479" viewBox="0 0 428 479" fill="none" xmlns="http://www.w3.org/2000/svg">
<g filter="url(#filter0_d_1_3932)">
<path d="M13.238 204.396H43.8249V399.609C43.8249 402.389 46.0999 404.664 48.8806 404.664H138.745V394.49H53.9363V204.396H84.5231V240.229H94.6977V119.335H189.997V149.921H130.403C127.623 149.921 125.348 152.196 125.348 154.977V318.086C125.348 320.867 127.623 323.142 130.403 323.142H159.979V312.967H135.459V234.225H166.046V277.325C166.046 280.105 168.321 282.38 171.102 282.38H252.624C255.405 282.38 257.68 280.105 257.68 277.325V259.63H247.506V272.206H176.157V200.857H193.283V190.683H171.038C168.258 190.683 165.983 192.958 165.983 195.739V224.05H135.396V160.096H233.982V149.921H200.109V119.335H211.863V109.16H89.5788C86.7982 109.16 84.5231 111.435 84.5231 114.216V194.222H53.9363V186.701H43.8249V194.222H13.238V37.7485H112.203V27.574H8.11916C5.33853 27.574 3.06348 29.849 3.06348 32.6297V221.27H13.238V204.396Z" fill="url(#paint0_linear_1_3932)" stroke="#F4F6FE" stroke-width="0.5"/>
<path d="M415.859 27.574H142.726V37.7485H343.626V68.3986H48.8803C46.0997 68.3986 43.8246 70.6736 43.8246 73.4543V156.178H53.9991V78.5099H248.896V109.097H242.45V119.271H329.218V157.505H298.631V154.977C298.631 152.196 296.356 149.921 293.575 149.921H264.631V160.096H288.519V199.025H257.933V195.739C257.933 192.958 255.658 190.683 252.877 190.683H223.933V200.857H247.695V229.169H257.869V209.199H288.456V312.967H190.502V323.142H199.097V353.729H94.7606V270.689H84.586V358.847C84.586 361.628 86.8611 363.903 89.6417 363.903H212.305V394.49H169.269V404.664H267.728V435.251H13.1745V251.793H3V440.433C3 443.214 5.27506 445.489 8.05568 445.489H308.805V435.315H277.839V404.728H300.527H330.987H374.972C377.752 404.728 380.027 402.453 380.027 399.672V186.954V174.694H369.853V186.954V394.553H330.924H300.464H222.416V363.966H253.888V353.792H209.145V323.205H293.386C296.166 323.205 298.441 320.93 298.441 318.149V167.616H329.028V353.729H284.285V363.903H334.147C336.928 363.903 339.203 361.628 339.203 358.847V114.216C339.203 111.435 336.928 109.16 334.147 109.16H258.881V78.5099H369.79V144.171H379.964V73.4543C379.964 70.6736 377.689 68.3986 374.908 68.3986H353.611V37.8117H410.614V78.6995H420.789V32.756C420.915 29.849 418.64 27.574 415.859 27.574Z" fill="url(#paint1_linear_1_3932)" stroke="#F4F6FE" stroke-width="0.5"/>
<path d="M410.741 435.314H339.393V445.489H415.86C418.64 445.489 420.915 443.214 420.915 440.433V109.16H410.741V435.314Z" fill="url(#paint2_linear_1_3932)" stroke="#F4F6FE" stroke-width="0.5"/>
</g>
<g filter="url(#filter1_d_1_3932)">
<path d="M327.999 454.927C331.825 452.718 333.136 447.826 330.927 444.001C328.718 440.175 323.826 438.864 320.001 441.073C316.175 443.282 314.864 448.174 317.073 451.999C319.282 455.825 324.174 457.136 327.999 454.927Z" fill="url(#paint3_radial_1_3932)"/>
</g>
<g opacity="0.5" filter="url(#filter2_f_1_3932)">
<path d="M134.683 30.1424C138.308 28.3768 139.55 24.4665 137.457 21.4084C135.364 18.3503 130.73 17.3025 127.106 19.0681C123.481 20.8337 122.239 24.744 124.332 27.8021C126.424 30.8602 131.059 31.908 134.683 30.1424Z" fill="#78869A"/>
</g>
<path d="M131.368 27.1416C134.992 25.049 136.234 20.4145 134.142 16.7901C132.049 13.1658 127.415 11.924 123.79 14.0165C120.166 16.109 118.924 20.7435 121.016 24.3679C123.109 27.9923 127.744 29.2341 131.368 27.1416Z" fill="url(#paint4_radial_1_3932)"/>
<defs>
<filter id="filter0_d_1_3932" x="0.75" y="23.324" width="426.416" height="426.415" filterUnits="userSpaceOnUse" color-interpolation-filters="sRGB">
<feFlood flood-opacity="0" result="BackgroundImageFix"/>
<feColorMatrix in="SourceAlpha" type="matrix" values="0 0 0 0 0 0 0 0 0 0 0 0 0 0 0 0 0 0 127 0" result="hardAlpha"/>
<feOffset dx="2"/>
<feGaussianBlur stdDeviation="2"/>
<feComposite in2="hardAlpha" operator="out"/>
<feColorMatrix type="matrix" values="0 0 0 0 0.653889 0 0 0 0 0.669778 0 0 0 0 0.733333 0 0 0 1 0"/>
<feBlend mode="normal" in2="BackgroundImageFix" result="effect1_dropShadow_1_3932"/>
<feBlend mode="normal" in="SourceGraphic" in2="effect1_dropShadow_1_3932" result="shape"/>
</filter>
<filter id="filter1_d_1_3932" x="305" y="431" width="48" height="48" filterUnits="userSpaceOnUse" color-interpolation-filters="sRGB">
<feFlood flood-opacity="0" result="BackgroundImageFix"/>
<feColorMatrix in="SourceAlpha" type="matrix" values="0 0 0 0 0 0 0 0 0 0 0 0 0 0 0 0 0 0 127 0" result="hardAlpha"/>
<feOffset dx="5" dy="7"/>
<feGaussianBlur stdDeviation="8"/>
<feComposite in2="hardAlpha" operator="out"/>
<feColorMatrix type="matrix" values="0 0 0 0 0.945098 0 0 0 0 0.321569 0 0 0 0 0.254902 0 0 0 0.67 0"/>
<feBlend mode="normal" in2="BackgroundImageFix" result="effect1_dropShadow_1_3932"/>
<feBlend mode="normal" in="SourceGraphic" in2="effect1_dropShadow_1_3932" result="shape"/>
</filter>
<filter id="filter2_f_1_3932" x="105.315" y="0.210449" width="51.158" height="48.7896" filterUnits="userSpaceOnUse" color-interpolation-filters="sRGB">
<feFlood flood-opacity="0" result="BackgroundImageFix"/>
<feBlend mode="normal" in="SourceGraphic" in2="BackgroundImageFix" result="shape"/>
<feGaussianBlur stdDeviation="9" result="effect1_foregroundBlur_1_3932"/>
</filter>
<linearGradient id="paint0_linear_1_3932" x1="475.81" y1="990.517" x2="-179.107" y2="21.2049" gradientUnits="userSpaceOnUse">
<stop offset="0.0955183" stop-color="white"/>
<stop offset="0.3631" stop-color="#E4E4E4"/>
<stop offset="0.4525" stop-color="#E6E6E6"/>
<stop offset="0.543353" stop-color="#F4F4F4"/>
<stop offset="0.684724" stop-color="#F9F9F9"/>
<stop offset="1" stop-color="white"/>
</linearGradient>
<linearGradient id="paint1_linear_1_3932" x1="778.718" y1="1094.77" x2="187.766" y2="-200.21" gradientUnits="userSpaceOnUse">
<stop offset="0.0955183" stop-color="white"/>
<stop offset="0.3631" stop-color="#E4E4E4"/>
<stop offset="0.4525" stop-color="#E6E6E6"/>
<stop offset="0.543353" stop-color="#F4F4F4"/>
<stop offset="0.684724" stop-color="#F9F9F9"/>
<stop offset="1" stop-color="white"/>
</linearGradient>
<linearGradient id="paint2_linear_1_3932" x1="490.756" y1="968.014" x2="-30.9882" y2="690.804" gradientUnits="userSpaceOnUse">
<stop offset="0.0955183" stop-color="white"/>
<stop offset="0.3631" stop-color="#E4E4E4"/>
<stop offset="0.4525" stop-color="#E6E6E6"/>
<stop offset="0.543353" stop-color="#F4F4F4"/>
<stop offset="0.684724" stop-color="#F9F9F9"/>
<stop offset="1" stop-color="white"/>
</linearGradient>
<radialGradient id="paint3_radial_1_3932" cx="0" cy="0" r="1" gradientUnits="userSpaceOnUse" gradientTransform="translate(319.215 446.608) rotate(31.7156) scale(14.3089)">
<stop offset="0.0002" stop-color="white"/>
<stop offset="0.0003" stop-color="#FFA197"/>
<stop offset="0.15625" stop-color="#FF7364"/>
<stop offset="0.645833" stop-color="#EC5444"/>
<stop offset="1" stop-color="#E03D2C"/>
</radialGradient>
<radialGradient id="paint4_radial_1_3932" cx="0" cy="0" r="1" gradientUnits="userSpaceOnUse" gradientTransform="translate(123.046 19.2598) rotate(31.7156) scale(13.556)">
<stop stop-color="#8EB5FF"/>
<stop offset="0.0001" stop-color="#EDEDED"/>
<stop offset="0.0002" stop-color="white"/>
<stop offset="0.15625" stop-color="#EDEDED"/>
<stop offset="0.645833" stop-color="#D8DADF"/>
<stop offset="0.863019" stop-color="#C8CBD1"/>
</radialGradient>
</defs>
</svg>
